<?xml version="1.0" encoding="utf-8"?>
<!-- Svg Vector Icons : http://www.onlinewebfonts.com/icon -->
<!DOCTYPE svg PUBLIC "-//W3C//DTD SVG 1.1//EN" "http://www.w3.org/Graphics/SVG/1.1/DTD/svg11.dtd">
<svg version="1.1" xmlns="http://www.w3.org/2000/svg" xmlns:xlink="http://www.w3.org/1999/xlink" x="0px" y="0px" viewBox="0 0 1000 1000" enable-background="new 0 0 1000 1000" xml:space="preserve">
<metadata> Svg Vector Icons : http://www.onlinewebfonts.com/icon </metadata>
<g><g transform="translate(0.000000,511.000000) scale(0.100000,-0.100000)"><path d="M4471.1,4060.4c-413.9-64-709.9-154-1035.8-321.9c-591.9-303.9-1075.8-819.8-1283.7-1373.7c-126-333.9-118-160-130-2741.5l-10-2359.5l-128,509.9c-70,279.9-142,543.9-158,585.9c-82,210-405.9,154-403.9-70c0-26,76-347.9,170-715.8c92-367.9,164-671.9,160-675.9c-2-4-112,68-244,162c-297.9,212-315.9,220-395.9,206c-138-26-218-213.9-140-325.9c18-24,130-114,251.9-200l220-156l-571.9-10l-573.9-10l-48-56c-88-102-56-269.9,66-331.9c62-32,9508.1-32,9570,0c76,38,114,102,114,194c0,72-10,98-62,146l-62,58l-877.8,4l-879.8,6l499.9,355.9c419.9,299.9,501.9,365.9,521.9,421.9c46,138-54,277.9-198,277.9c-72,0-126-34-495.9-295.9c-227.9-164-427.9-305.9-441.9-315.9c-30-24-32-28,403.9,919.8c197.9,429.9,331.9,747.9,331.9,783.8c0,90-90,182-190,196c-146,18-166-10-541.9-827.8l-337.9-735.8l-10,2299.5l-10,2299.5l-54,196c-112,405.9-321.9,761.9-635.9,1073.8c-391.9,391.9-891.8,655.9-1469.7,779.8C5197,4054.4,4625.1,4082.3,4471.1,4060.4z M4871,2744.6c120-52,130-96,130-601.9v-449.9h467.9h467.9l62-58c68-64,82-156,38-252c-46-100-94-110-585.9-110H5001V181.1c0-763.9-6-1103.8-22-1133.8c-38-76-102-114-194-114c-70,0-98,12-146,58l-58,58V161.1v1111.8h-453.9c-507.9,0-533.9,6-591.9,126c-32,62-34,84-14,144c12,38,46,88,74,110c48,38,80,40,517.9,40h467.9v465.9c0,513.9,4,531.9,128,585.9C4787,2778.6,4789,2778.6,4871,2744.6z"/></g></g>
</svg>